<?xml version="1.0" encoding="UTF-8" standalone="no"?>
<!-- Created with Inkscape (http://www.inkscape.org/) -->

<svg
   version="1.1"
   id="svg602"
   width="1122.5197"
   height="529.13385"
   viewBox="0 0 1122.5197 529.13385"
   sodipodi:docname="Aqsai3-10a үи бірлестігіне төлем жасау.svg"
   inkscape:version="1.2.2 (b0a8486541, 2022-12-01)"
   xmlns:inkscape="http://www.inkscape.org/namespaces/inkscape"
   xmlns:sodipodi="http://sodipodi.sourceforge.net/DTD/sodipodi-0.dtd"
   xmlns="http://www.w3.org/2000/svg"
   xmlns:svg="http://www.w3.org/2000/svg">
  <defs
     id="defs606">
    <clipPath
       clipPathUnits="userSpaceOnUse"
       id="clipPath618">
      <path
         d="M 0,0.028 H 841.861 V 396.85 H 0 Z"
         clip-rule="evenodd"
         id="path616" />
    </clipPath>
  </defs>
  <sodipodi:namedview
     id="namedview604"
     pagecolor="#ffffff"
     bordercolor="#000000"
     borderopacity="0.25"
     inkscape:showpageshadow="2"
     inkscape:pageopacity="0.0"
     inkscape:pagecheckerboard="0"
     inkscape:deskcolor="#d1d1d1"
     showgrid="false"
     inkscape:zoom="1.0663511"
     inkscape:cx="562.19758"
     inkscape:cy="264.45324"
     inkscape:window-width="1600"
     inkscape:window-height="852"
     inkscape:window-x="0"
     inkscape:window-y="0"
     inkscape:window-maximized="1"
     inkscape:current-layer="g610">
    <inkscape:page
       x="0"
       y="0"
       id="page608"
       width="1122.5197"
       height="529.13385" />
  </sodipodi:namedview>
  <g
     id="g610"
     inkscape:groupmode="layer"
     inkscape:label="Page 1"
     transform="matrix(1.3333333,0,0,-1.3333333,0,529.13386)">
    <g
       id="g612">
      <g
         id="g614"
         clip-path="url(#clipPath618)">
        <g
           id="g620">
          <text
             xml:space="preserve"
             transform="matrix(1,0,0,-1,56.8,327.1)"
             style="font-variant:normal;font-weight:normal;font-size:14px;font-family:Ubuntu;-inkscape-font-specification:Ubuntu-Regular;writing-mode:lr-tb;fill:#000000;fill-opacity:1;fill-rule:nonzero;stroke:none"
             id="text624"><tspan
               x="0 9.0860004 17.275999 23.351999 30.548 33.950001 41.846001 45.891998 53.787998 61.683998 68.879997"
               y="0"
               sodipodi:role="line"
               id="tspan622">Aqsai3-10a </tspan></text>
        </g>
        <g
           id="g626">
          <text
             xml:space="preserve"
             transform="matrix(1,0,0,-1,128.9,327.1)"
             style="font-variant:normal;font-weight:normal;font-size:14px;font-family:Ubuntu;-inkscape-font-specification:Ubuntu-Regular;writing-mode:lr-tb;fill:#666666;fill-opacity:1;fill-rule:nonzero;stroke:none"
             id="text630"><tspan
               x="0 10.178 16.674 24.864 28.266001 35.476002 38.681999 42.084 50.372002 58.099998 66.290001 74.017998 82.208 85.610001 88.816002 97.005997 100.408 108.598 116.788 124.516 131.194 137.41 140.812 146.45399 149.856 158.032 165.73199"
               y="0"
               sodipodi:role="line"
               id="tspan628">мүлік іиелері бірлестігіне,</tspan></text>
        </g>
        <g
           id="g632" />
        <g
           id="g634">
          <text
             xml:space="preserve"
             transform="matrix(1,0,0,-1,301.3,327.1)"
             style="font-variant:normal;font-weight:normal;font-size:14px;font-family:Ubuntu;-inkscape-font-specification:Ubuntu-Regular;writing-mode:lr-tb;fill:#666666;fill-opacity:1;fill-rule:nonzero;stroke:none"
             id="text638"><tspan
               x="0 8.5959997 15.414 22.624001 26.025999"
               y="0"
               sodipodi:role="line"
               id="tspan636">Бүкіл</tspan></text>
        </g>
        <g
           id="g640">
          <text
             xml:space="preserve"
             transform="matrix(1,0,0,-1,338.756,327.1)"
             style="font-variant:normal;font-weight:normal;font-size:14px;font-family:Ubuntu;-inkscape-font-specification:Ubuntu-Regular;writing-mode:lr-tb;fill:#000000;fill-opacity:1;fill-rule:nonzero;stroke:none"
             id="text644"><tspan
               x="0 7.7420001 16.030001 24.233999 27.636 30.841999 38.066002 45.192001 51.408001 54.810001 62.846001 66.052002 72.884003 79.561996 85.778 92.973999 99.722 105.49"
               y="0"
               sodipodi:role="line"
               id="tspan642">Үиді күтіп ұстауға</tspan></text>
        </g>
        <g
           id="g646">
          <text
             xml:space="preserve"
             transform="matrix(1,0,0,-1,454.706,327.1)"
             style="font-variant:normal;font-weight:normal;font-size:14px;font-family:Ubuntu;-inkscape-font-specification:Ubuntu-Regular;writing-mode:lr-tb;fill:#666666;fill-opacity:1;fill-rule:nonzero;stroke:none"
             id="text650"><tspan
               x="0 6.9439998"
               y="0"
               sodipodi:role="line"
               id="tspan648">– </tspan></text>
        </g>
        <g
           id="g652">
          <text
             xml:space="preserve"
             transform="matrix(1,0,0,-1,464.85,327.1)"
             style="font-variant:normal;font-weight:normal;font-size:14px;font-family:Ubuntu;-inkscape-font-specification:Ubuntu-Regular;writing-mode:lr-tb;fill:#000000;fill-opacity:1;fill-rule:nonzero;stroke:none"
             id="text656"><tspan
               x="0 7.994 16.184 28.266001 35.993999 44.183998 51.380001 59.374001 66.444 69.888 76.972 83.412003"
               y="0"
               sodipodi:role="line"
               id="tspan654">homebank.kz </tspan></text>
        </g>
        <g
           id="g658">
          <text
             xml:space="preserve"
             transform="matrix(1,0,0,-1,551.5,327.1)"
             style="font-variant:normal;font-weight:normal;font-size:14px;font-family:Ubuntu;-inkscape-font-specification:Ubuntu-Regular;writing-mode:lr-tb;fill:#666666;fill-opacity:1;fill-rule:nonzero;stroke:none"
             id="text662"><tspan
               x="0 4.4099998 11.48 18.676001 26.865999 37.282001 44.813999 53.004002 60.200001 68.375999 75.585999 79.996002 83.202003 91.377998 99.106003 109.284 117.012 123.522"
               y="0"
               sodipodi:role="line"
               id="tspan660">(халықбанк) немесе</tspan></text>
        </g>
        <g
           id="g664">
          <text
             xml:space="preserve"
             transform="matrix(1,0,0,-1,685.956,327.1)"
             style="font-variant:normal;font-weight:normal;font-size:14px;font-family:Ubuntu;-inkscape-font-specification:Ubuntu-Regular;writing-mode:lr-tb;fill:#000000;fill-opacity:1;fill-rule:nonzero;stroke:none"
             id="text668"><tspan
               x="0 7.0560002 14.252 20.327999 28.518 31.92 35.363998 42.448002 48.888"
               y="0"
               sodipodi:role="line"
               id="tspan666">kaspi.kz </tspan></text>
        </g>
        <g
           id="g670">
          <text
             xml:space="preserve"
             transform="matrix(1,0,0,-1,56.8,311.4)"
             style="font-variant:normal;font-weight:normal;font-size:14px;font-family:Ubuntu;-inkscape-font-specification:Ubuntu-Regular;writing-mode:lr-tb;fill:#666666;fill-opacity:1;fill-rule:nonzero;stroke:none"
             id="text674"><tspan
               x="0 7.2519999 15.442 21.952 32.368 42.546001 53.900002 61.096001 69.286003 76.482002 84.671997 95.087997 98.293999 105.49 113.68 121.198 131.614 139.804 150.22 153.42599 159.642 167.832 176.022 183.75 193.92799 197.134 204.65199 211.84801 220.03799 230.45399 238.644 246.84801 254.04401 262.22 269.41599 277.62 288.03601 291.48001"
               y="0"
               sodipodi:role="line"
               id="tspan672">қосымшалары арқылы төлем қабылданады. </tspan></text>
        </g>
        <g
           id="g676">
          <text
             xml:space="preserve"
             transform="matrix(1,0,0,-1,56.8,295.7)"
             style="font-variant:normal;font-weight:normal;font-size:14px;font-family:Ubuntu;-inkscape-font-specification:Ubuntu-Regular;writing-mode:lr-tb;fill:#111111;fill-opacity:1;fill-rule:nonzero;stroke:none"
             id="text680"><tspan
               x="0 9.0860004 17.275999 23.351999 30.548 33.950001 41.846001 45.891998 53.787998 61.683998"
               y="0"
               sodipodi:role="line"
               id="tspan678">Aqsai3-10a</tspan></text>
        </g>
        <g
           id="g682">
          <text
             xml:space="preserve"
             transform="matrix(1,0,0,-1,128.906,295.7)"
             style="font-variant:normal;font-weight:normal;font-size:14px;font-family:Ubuntu;-inkscape-font-specification:Ubuntu-Regular;writing-mode:lr-tb;fill:#666666;fill-opacity:1;fill-rule:nonzero;stroke:none"
             id="text686"><tspan
               x="0 6.9439998 10.15 18.354 26.082001 34.118 37.324001 40.726002 47.431999 55.636002 63.363998 69.902 78.106003 85.834 89.040001 99.400002 106.596 113.302 120.498 130.67599 141.092 147.798"
               y="0"
               sodipodi:role="line"
               id="tspan684">– деп іздеуде жазамыз,</tspan></text>
        </g>
        <g
           id="g688">
          <text
             xml:space="preserve"
             transform="matrix(1,0,0,-1,56.8,280)"
             style="font-variant:normal;font-weight:normal;font-size:14px;font-family:Ubuntu;-inkscape-font-specification:Ubuntu-Regular;writing-mode:lr-tb;fill:#111111;fill-opacity:1;fill-rule:nonzero;stroke:none"
             id="text692"><tspan
               x="0 9.0860004 17.275999 23.351999 30.548 33.950001 41.846001 45.891998 53.787998 61.683998 68.879997 72.085999 82.264 90.552002"
               y="0"
               sodipodi:role="line"
               id="tspan690">Aqsai3-10a миб</tspan></text>
        </g>
        <g
           id="g694">
          <text
             xml:space="preserve"
             transform="matrix(1,0,0,-1,158.756,280)"
             style="font-variant:normal;font-weight:normal;font-size:14px;font-family:Ubuntu;-inkscape-font-specification:Ubuntu-Regular;writing-mode:lr-tb;fill:#666666;fill-opacity:1;fill-rule:nonzero;stroke:none"
             id="text698"><tspan
               x="0 4.046 7.2519999 14.084 22.372 25.577999 33.768002 37.169998 45.360001 53.549999 61.278 67.956001 74.171997 77.573997 83.216003 86.617996 89.823997 101.178 111.594 117.362 124.558 132.76199 143.17799"
               y="0"
               sodipodi:role="line"
               id="tspan696">- үи бірлестігі шығады,</tspan></text>
        </g>
        <g
           id="g700">
          <text
             xml:space="preserve"
             transform="matrix(1,0,0,-1,56.8,264.3)"
             style="font-variant:normal;font-weight:normal;font-size:14px;font-family:Ubuntu;-inkscape-font-specification:Ubuntu-Regular;writing-mode:lr-tb;fill:#666666;fill-opacity:1;fill-rule:nonzero;stroke:none"
             id="text704"><tspan
               x="0 7.5180001 14.714 24.878 32.605999 38.821999 42.223999 50.400002 61.754002 69.482002 72.688004 82.781998 90.972 99.162003 107.366 114.562 122.752 130.95599 141.37199 144.578 150.79401 158.98399 167.174 173.39 183.806 191.996 202.39799 210.43401 213.64 217.686 220.892 229.09599 236.82401 245.01401 253.20399 260.93201 267.44199 278.79599 286.98599 292.642 296.086 299.29199 306.48801 312.70401 323.12 326.32599 336.42001 344.60999 352.78601 356.18799 364.47601 367.87799 374.58401 382.78799 386.19 389.634 392.84 403.01801 410.746 417.746 425.474 433.64999 443.94 451.668 459.95599 463.358 471.646 475.048 481.754 489.95801 493.35999 496.56601 502.22198 505.66599 513.758"
               y="0"
               sodipodi:role="line"
               id="tspan702">қажетінше жолдарды толтырып - дербесшот, аты жөніңізді, мекенжәиіңізді т.б.</tspan></text>
        </g>
        <g
           id="g706">
          <text
             xml:space="preserve"
             transform="matrix(1,0,0,-1,56.8,248.6)"
             style="font-variant:normal;font-weight:normal;font-size:14px;font-family:Ubuntu;-inkscape-font-specification:Ubuntu-Regular;writing-mode:lr-tb;fill:#666666;fill-opacity:1;fill-rule:nonzero;stroke:none"
             id="text710"><tspan
               x="0 6.2160001 14.406 22.596001 30.323999 40.501999 51.855999 60.046001 66.542 72.758003 79.954002"
               y="0"
               sodipodi:role="line"
               id="tspan708">төлемшотта </tspan></text>
        </g>
        <g
           id="g712">
          <text
             xml:space="preserve"
             transform="matrix(1,0,0,-1,139.95,248.6)"
             style="font-variant:normal;font-weight:normal;font-size:14px;font-family:Ubuntu;-inkscape-font-specification:Ubuntu-Regular;writing-mode:lr-tb;fill:#111111;fill-opacity:1;fill-rule:nonzero;stroke:none"
             id="text716"><tspan
               x="0 6.2160001 14.406 22.596001 30.323999 40.501999 46.144001"
               y="0"
               sodipodi:role="line"
               id="tspan714">төлемге</tspan></text>
        </g>
        <g
           id="g718">
          <text
             xml:space="preserve"
             transform="matrix(1,0,0,-1,197.006,248.6)"
             style="font-variant:normal;font-weight:normal;font-size:14px;font-family:Ubuntu;-inkscape-font-specification:Ubuntu-Regular;writing-mode:lr-tb;fill:#666666;fill-opacity:1;fill-rule:nonzero;stroke:none"
             id="text722"><tspan
               x="0 6.9299998 15.12 23.309999 29.82 37.548 43.764 47.166 55.355999 60.998001 68.725998 76.902 80.108002 86.575996 94.765999 104.944 112.14 120.316 130.73199 133.938 140.882 144.088 150.304 158.494 166.68401 174.412 182.7 189.21001 192.612 199.31799"
               y="0"
               sodipodi:role="line"
               id="tspan720">көрсетілген соманы – төлеисіз.</tspan></text>
        </g>
        <g
           id="g724">
          <text
             xml:space="preserve"
             transform="matrix(1,0,0,-1,56.8,201.5)"
             style="font-variant:normal;font-weight:normal;font-size:14px;font-family:Ubuntu;-inkscape-font-specification:Ubuntu-Regular;writing-mode:lr-tb;fill:#111111;fill-opacity:1;fill-rule:nonzero;stroke:none"
             id="text728"><tspan
               x="0 7.8540001 15.05 18.256001 24.724001 32.914001 41.118 48.846001 56.882 67.241997 74.438004 82.613998 90.902"
               y="0"
               sodipodi:role="line"
               id="tspan726">За содержание</tspan></text>
        </g>
        <g
           id="g730" />
        <g
           id="g732">
          <text
             xml:space="preserve"
             transform="matrix(1,0,0,-1,158.65,201.5)"
             style="font-variant:normal;font-weight:normal;font-size:14px;font-family:Ubuntu;-inkscape-font-specification:Ubuntu-Regular;writing-mode:lr-tb;fill:#111111;fill-opacity:1;fill-rule:nonzero;stroke:none"
             id="text736"><tspan
               x="0 7.7280002 14.238 21.966 27.608 35.798 39.004002 47.208 55.397999 65.575996"
               y="0"
               sodipodi:role="line"
               id="tspan734">всего дома</tspan></text>
        </g>
        <g
           id="g738">
          <text
             xml:space="preserve"
             transform="matrix(1,0,0,-1,234.606,201.5)"
             style="font-variant:normal;font-weight:normal;font-size:14px;font-family:Ubuntu;-inkscape-font-specification:Ubuntu-Regular;writing-mode:lr-tb;fill:#666666;fill-opacity:1;fill-rule:nonzero;stroke:none"
             id="text742"><tspan
               x="0 8.1899996 16.226 24.416 31.612 37.827999 48.243999 51.450001 59.486 67.676003 75.963997 84.139999 92.428001 102.606 109.802 120.89 127.092 133.60201 141.12 144.326 148.37199 151.578 160.216 167.944 176.134 183.862 190.56799 193.774 201.81 210 218.28799 226.478 234.5 244.664 252.392 260.56799 268.85599 276.388"
               y="0"
               sodipodi:role="line"
               id="tspan740">оплаты принимаются - Через приложения </tspan></text>
        </g>
        <g
           id="g744">
          <text
             xml:space="preserve"
             transform="matrix(1,0,0,-1,514.25,201.5)"
             style="font-variant:normal;font-weight:normal;font-size:14px;font-family:Ubuntu;-inkscape-font-specification:Ubuntu-Regular;writing-mode:lr-tb;fill:#111111;fill-opacity:1;fill-rule:nonzero;stroke:none"
             id="text748"><tspan
               x="0 7.994 16.184 28.266001 35.993999 44.183998 51.380001 59.374001 66.444 69.888 76.972"
               y="0"
               sodipodi:role="line"
               id="tspan746">homebank.kz</tspan></text>
        </g>
        <g
           id="g750">
          <text
             xml:space="preserve"
             transform="matrix(1,0,0,-1,600.906,201.5)"
             style="font-variant:normal;font-weight:normal;font-size:14px;font-family:Ubuntu;-inkscape-font-specification:Ubuntu-Regular;writing-mode:lr-tb;fill:#666666;fill-opacity:1;fill-rule:nonzero;stroke:none"
             id="text754"><tspan
               x="0 4.4099998 11.48 18.676001 26.865999 37.282001 44.799999 52.990002 60.186001 68.362 75.571999 79.982002 83.188004 91.475998 99.666 107.954"
               y="0"
               sodipodi:role="line"
               id="tspan752">(халықбанк) или </tspan></text>
        </g>
        <g
           id="g756">
          <text
             xml:space="preserve"
             transform="matrix(1,0,0,-1,712.1,201.5)"
             style="font-variant:normal;font-weight:normal;font-size:14px;font-family:Ubuntu;-inkscape-font-specification:Ubuntu-Regular;writing-mode:lr-tb;fill:#111111;fill-opacity:1;fill-rule:nonzero;stroke:none"
             id="text760"><tspan
               x="0 7.0560002 14.252 20.327999 28.518 31.92 35.363998 42.448002"
               y="0"
               sodipodi:role="line"
               id="tspan758">kaspi.kz</tspan></text>
        </g>
        <g
           id="g762">
          <text
             xml:space="preserve"
             transform="matrix(1,0,0,-1,764.206,201.5)"
             style="font-variant:normal;font-weight:normal;font-size:14px;font-family:Ubuntu;-inkscape-font-specification:Ubuntu-Regular;writing-mode:lr-tb;fill:#666666;fill-opacity:1;fill-rule:nonzero;stroke:none"
             id="text766"><tspan
               x="0 7.7280002"
               y="0"
               sodipodi:role="line"
               id="tspan764">в </tspan></text>
        </g>
        <g
           id="g768">
          <text
             xml:space="preserve"
             transform="matrix(1,0,0,-1,56.8,185.8)"
             style="font-variant:normal;font-weight:normal;font-size:14px;font-family:Ubuntu;-inkscape-font-specification:Ubuntu-Regular;writing-mode:lr-tb;fill:#666666;fill-opacity:1;fill-rule:nonzero;stroke:none"
             id="text772"><tspan
               x="0 8.1899996 16.379999 24.584 32.312 40.515999 48.804001 56.98 64.708 72.884003 81.171997 88.900002 92.106003 98.573997 106.764 114.954 121.646 127.848 135.576 143.304 151.48 159.65601 167.944 174.87399 183.064 190.79201 193.998 202.286 212.464 219.21201 230.67799 238.40601 245.084 251.3 259.02802"
               y="0"
               sodipodi:role="line"
               id="tspan770">объединение собственников имуществ </tspan></text>
        </g>
        <g
           id="g774">
          <text
             xml:space="preserve"
             transform="matrix(1,0,0,-1,319.05,185.8)"
             style="font-variant:normal;font-weight:normal;font-size:14px;font-family:Ubuntu;-inkscape-font-specification:Ubuntu-Regular;writing-mode:lr-tb;fill:#111111;fill-opacity:1;fill-rule:nonzero;stroke:none"
             id="text778"><tspan
               x="0 9.0860004 17.275999 23.351999 30.548 33.950001 41.846001 45.891998 53.787998 61.683998"
               y="0"
               sodipodi:role="line"
               id="tspan776">Aqsai3-10a</tspan></text>
        </g>
        <g
           id="g780">
          <text
             xml:space="preserve"
             transform="matrix(1,0,0,-1,56.8,170.1)"
             style="font-variant:normal;font-weight:normal;font-size:14px;font-family:Ubuntu;-inkscape-font-specification:Ubuntu-Regular;writing-mode:lr-tb;fill:#666666;fill-opacity:1;fill-rule:nonzero;stroke:none"
             id="text784"><tspan
               x="0 9.6599998 17.85 26.138 32.647999 39.647999 47.375999 50.582001 58.618 66.905998 78.260002 85.987999 96.166 99.372002 103.418"
               y="0"
               sodipodi:role="line"
               id="tspan782">Поиске пишем - </tspan></text>
        </g>
        <g
           id="g786">
          <text
             xml:space="preserve"
             transform="matrix(1,0,0,-1,163.4,170.1)"
             style="font-variant:normal;font-weight:normal;font-size:14px;font-family:Ubuntu;-inkscape-font-specification:Ubuntu-Regular;writing-mode:lr-tb;fill:#111111;fill-opacity:1;fill-rule:nonzero;stroke:none"
             id="text790"><tspan
               x="0 9.0860004 17.275999 23.351999 30.548 33.950001 41.846001 45.891998 53.787998 61.683998"
               y="0"
               sodipodi:role="line"
               id="tspan788">Aqsai3-10a</tspan></text>
        </g>
        <g
           id="g792">
          <text
             xml:space="preserve"
             transform="matrix(1,0,0,-1,232.3,170.1)"
             style="font-variant:normal;font-weight:normal;font-size:14px;font-family:Ubuntu;-inkscape-font-specification:Ubuntu-Regular;writing-mode:lr-tb;fill:#666666;fill-opacity:1;fill-rule:nonzero;stroke:none"
             id="text796"><tspan
               x="0"
               y="0"
               id="tspan794">,</tspan></text>
        </g>
        <g
           id="g798">
          <text
             xml:space="preserve"
             transform="matrix(1,0,0,-1,56.8,154.4)"
             style="font-variant:normal;font-weight:normal;font-size:14px;font-family:Ubuntu;-inkscape-font-specification:Ubuntu-Regular;writing-mode:lr-tb;fill:#666666;fill-opacity:1;fill-rule:nonzero;stroke:none"
             id="text802"><tspan
               x="0 7.7280002 18.143999 25.046 33.236 41.439999 49.728001 55.944 59.150002 63.195999"
               y="0"
               sodipodi:role="line"
               id="tspan800">выходит - </tspan></text>
        </g>
        <g
           id="g804">
          <text
             xml:space="preserve"
             transform="matrix(1,0,0,-1,123.2,154.4)"
             style="font-variant:normal;font-weight:normal;font-size:14px;font-family:Ubuntu;-inkscape-font-specification:Ubuntu-Regular;writing-mode:lr-tb;fill:#111111;fill-opacity:1;fill-rule:nonzero;stroke:none"
             id="text808"><tspan
               x="0 8.1899996 14.7 22.988001 26.194 35.279999 43.470001 49.546001 56.742001 60.144001 68.040001 72.085999 79.982002 87.877998"
               y="0"
               sodipodi:role="line"
               id="tspan806">оси Aqsai3-10a</tspan></text>
        </g>
        <g
           id="g810">
          <text
             xml:space="preserve"
             transform="matrix(1,0,0,-1,218.25,154.4)"
             style="font-variant:normal;font-weight:normal;font-size:14px;font-family:Ubuntu;-inkscape-font-specification:Ubuntu-Regular;writing-mode:lr-tb;fill:#666666;fill-opacity:1;fill-rule:nonzero;stroke:none"
             id="text814"><tspan
               x="0"
               y="0"
               id="tspan812">,</tspan></text>
        </g>
        <g
           id="g816">
          <text
             xml:space="preserve"
             transform="matrix(1,0,0,-1,56.8,138.7)"
             style="font-variant:normal;font-weight:normal;font-size:14px;font-family:Ubuntu;-inkscape-font-specification:Ubuntu-Regular;writing-mode:lr-tb;fill:#666666;fill-opacity:1;fill-rule:nonzero;stroke:none"
             id="text820"><tspan
               x="0 6.7059999 13.902 21.938 30.128 38.318001 46.493999 54.026001 61.754002 71.931999 75.138 81.844002 89.040001 97.075996 105.266 112.462 123.816 132.104 139.832 147.028 154.756 164.93401 175.35001 183.078 186.284 194.32001 202.50999 210.7 218.23199 221.438 225.48399 228.69 236.88 245.168 253.302 261.03 268.758 276.948 285.23599 288.44199 294.952 302.28799 310.01599 315.672 319.116 322.32199 332.948 341.23599 349.272 352.716 355.922 363.11801 371.32199 379.51199 387.23999 393.75 396.95599 405.24399 408.45001 414.66599 417.87201 426.104"
               y="0"
               sodipodi:role="line"
               id="tspan818">заполняем запрашиваемые поля - лицевой счет, фио, адрес и т д,</tspan></text>
        </g>
        <g
           id="g822">
          <text
             xml:space="preserve"
             transform="matrix(1,0,0,-1,56.8,123)"
             style="font-variant:normal;font-weight:normal;font-size:14px;font-family:Ubuntu;-inkscape-font-specification:Ubuntu-Regular;writing-mode:lr-tb;fill:#666666;fill-opacity:1;fill-rule:nonzero;stroke:none"
             id="text826"><tspan
               x="0 8.1899996 16.226 24.416 31.612 38.948002 47.236 54.964001 62.16 69.888 80.066002 83.272003 90.019997 97.216003 104.412 111.118 118.314 126.49 134.666 142.856 150.584 153.78999 161.51801 164.724 171.93401 179.662 187.95 194.166 201.362 209.53799 217.672 225.96001 234.248 237.45399 244.09 250.838 261.01599 271.194 277.94199 281.14801 285.194"
               y="0"
               sodipodi:role="line"
               id="tspan824">оплачиваем указанное в квитанции сумму - </tspan></text>
        </g>
        <g
           id="g828">
          <text
             xml:space="preserve"
             transform="matrix(1,0,0,-1,345.2,123)"
             style="font-variant:normal;font-weight:normal;font-size:14px;font-family:Ubuntu;-inkscape-font-specification:Ubuntu-Regular;writing-mode:lr-tb;fill:#111111;fill-opacity:1;fill-rule:nonzero;stroke:none"
             id="text832"><tspan
               x="0 7.21 10.416 18.606001 26.642 34.832001 42.028 48.243999"
               y="0"
               sodipodi:role="line"
               id="tspan830">к оплате</tspan></text>
        </g>
        <g
           id="g834">
          <text
             xml:space="preserve"
             transform="matrix(1,0,0,-1,401.15,123)"
             style="font-variant:normal;font-weight:normal;font-size:14px;font-family:Ubuntu;-inkscape-font-specification:Ubuntu-Regular;writing-mode:lr-tb;fill:#666666;fill-opacity:1;fill-rule:nonzero;stroke:none"
             id="text838"><tspan
               x="0"
               y="0"
               id="tspan836">.</tspan></text>
        </g>
      </g>
    </g>
  </g>
</svg>
