<?xml version="1.0" encoding="UTF-8" standalone="no"?>
<!-- Created with Inkscape (http://www.inkscape.org/) -->

<svg
   width="8.2139997mm"
   height="2.4400001mm"
   viewBox="0 0 8.2139999 2.44"
   version="1.1"
   id="svg420"
   sodipodi:docname="www.svg"
   inkscape:version="1.2.2 (b0a8486541, 2022-12-01)"
   xmlns:inkscape="http://www.inkscape.org/namespaces/inkscape"
   xmlns:sodipodi="http://sodipodi.sourceforge.net/DTD/sodipodi-0.dtd"
   xmlns="http://www.w3.org/2000/svg"
   xmlns:svg="http://www.w3.org/2000/svg">
  <sodipodi:namedview
     id="namedview422"
     pagecolor="#ffffff"
     bordercolor="#000000"
     borderopacity="0.25"
     inkscape:showpageshadow="2"
     inkscape:pageopacity="0.0"
     inkscape:pagecheckerboard="0"
     inkscape:deskcolor="#d1d1d1"
     inkscape:document-units="mm"
     showgrid="false"
     inkscape:zoom="2.786611"
     inkscape:cx="165.79279"
     inkscape:cy="64.235733"
     inkscape:window-width="1600"
     inkscape:window-height="852"
     inkscape:window-x="0"
     inkscape:window-y="0"
     inkscape:window-maximized="1"
     inkscape:current-layer="layer1" />
  <defs
     id="defs417">
    <rect
       x="53.901615"
       y="65.754585"
       width="60.012817"
       height="35.080078"
       id="rect239" />
  </defs>
  <g
     inkscape:label="Layer 1"
     inkscape:groupmode="layer"
     id="layer1">
    <g
       aria-label="www"
       transform="matrix(0.26458333,0,0,0.26458333,-14.302937,-17.46343)"
       id="text237"
       style="font-size:17.3333px;line-height:0.43;font-family:Ubuntu;-inkscape-font-specification:'Ubuntu, @wght=800,wdth=75.0';font-variation-settings:'wdth' 75, 'wght' 800;white-space:pre;shape-inside:url(#rect239);display:inline;opacity:1;fill:#858474">
      <path
         d="M 55.653007,75.224831 Q 55.479674,74.531499 55.271674,73.474167 55.063675,72.416836 54.838342,71.151505 54.613009,69.886174 54.405009,68.55151 54.214343,67.216846 54.058343,66.003515 h 2.461329 q 0.03467,0.658665 0.08667,1.403997 0.052,0.745332 0.121334,1.559997 0.06933,0.814665 0.155999,1.698664 0.104,0.866665 0.225333,1.78533 0.242666,-1.213331 0.415999,-2.357329 0.173333,-1.161331 0.294666,-2.183996 0.121334,-1.039998 0.173333,-1.906663 h 2.166663 q 0.052,0.866665 0.156,1.906663 0.103999,1.022665 0.259999,2.166663 0.156,1.143997 0.381333,2.374662 0.138666,-0.918665 0.242666,-1.78533 0.104,-0.883999 0.190666,-1.698664 0.104,-0.814665 0.156,-1.559997 0.06933,-0.745332 0.121333,-1.403997 h 2.357329 q -0.156,1.213331 -0.364,2.547995 -0.190666,1.334664 -0.415999,2.599995 -0.225333,1.265331 -0.433332,2.322662 -0.208,1.057332 -0.381333,1.750664 H 60.124998 Q 59.951665,74.531499 59.760999,73.786167 59.587666,73.040835 59.397,72.191503 q -0.173333,-0.866665 -0.364,-1.871996 -0.173333,1.005331 -0.363999,1.871996 -0.173333,0.849332 -0.363999,1.594664 -0.173333,0.745332 -0.346666,1.438664 z"
         id="path2083" />
      <path
         d="M 66.19165,75.224831 Q 66.018317,74.531499 65.810317,73.474167 65.602318,72.416836 65.376985,71.151505 65.151652,69.886174 64.943652,68.55151 64.752986,67.216846 64.596986,66.003515 h 2.461329 q 0.03467,0.658665 0.08667,1.403997 0.052,0.745332 0.121333,1.559997 0.06933,0.814665 0.156,1.698664 0.104,0.866665 0.225333,1.78533 0.242666,-1.213331 0.415999,-2.357329 0.173333,-1.161331 0.294666,-2.183996 0.121333,-1.039998 0.173333,-1.906663 h 2.166663 q 0.052,0.866665 0.155999,1.906663 0.104,1.022665 0.26,2.166663 0.156,1.143997 0.381333,2.374662 0.138666,-0.918665 0.242666,-1.78533 0.104,-0.883999 0.190666,-1.698664 0.104,-0.814665 0.156,-1.559997 0.06933,-0.745332 0.121333,-1.403997 h 2.357329 q -0.156,1.213331 -0.364,2.547995 -0.190666,1.334664 -0.415999,2.599995 -0.225333,1.265331 -0.433332,2.322662 -0.208,1.057332 -0.381333,1.750664 h -2.305329 q -0.173333,-0.693332 -0.363999,-1.438664 -0.173333,-0.745332 -0.363999,-1.594664 -0.173333,-0.866665 -0.364,-1.871996 -0.173333,1.005331 -0.363999,1.871996 -0.173333,0.849332 -0.363999,1.594664 -0.173333,0.745332 -0.346666,1.438664 z"
         id="path2085" />
      <path
         d="M 76.730293,75.224831 Q 76.55696,74.531499 76.34896,73.474167 76.140961,72.416836 75.915628,71.151505 75.690295,69.886174 75.482295,68.55151 75.291629,67.216846 75.135629,66.003515 h 2.461329 q 0.03467,0.658665 0.08667,1.403997 0.052,0.745332 0.121333,1.559997 0.06933,0.814665 0.156,1.698664 0.104,0.866665 0.225333,1.78533 0.242666,-1.213331 0.415999,-2.357329 0.173333,-1.161331 0.294666,-2.183996 0.121333,-1.039998 0.173333,-1.906663 h 2.166663 q 0.052,0.866665 0.155999,1.906663 0.104,1.022665 0.26,2.166663 0.156,1.143997 0.381332,2.374662 0.138667,-0.918665 0.242667,-1.78533 0.103999,-0.883999 0.190666,-1.698664 0.104,-0.814665 0.156,-1.559997 0.06933,-0.745332 0.121333,-1.403997 h 2.357329 q -0.156,1.213331 -0.364,2.547995 -0.190666,1.334664 -0.415999,2.599995 -0.225333,1.265331 -0.433332,2.322662 -0.208,1.057332 -0.381333,1.750664 h -2.305329 q -0.173333,-0.693332 -0.363999,-1.438664 -0.173333,-0.745332 -0.363999,-1.594664 -0.173333,-0.866665 -0.364,-1.871996 -0.173333,1.005331 -0.363999,1.871996 -0.173333,0.849332 -0.363999,1.594664 -0.173333,0.745332 -0.346666,1.438664 z"
         id="path2087" />
    </g>
  </g>
</svg>
