<?xml version="1.0" encoding="UTF-8"?>
<!DOCTYPE svg PUBLIC "-//W3C//DTD SVG 1.1//EN" "http://www.w3.org/Graphics/SVG/1.1/DTD/svg11.dtd">
<!-- Creator: CorelDRAW 2020 -->
<svg xmlns="http://www.w3.org/2000/svg" xml:space="preserve" width="5.6006mm" height="42.3141mm" version="1.1" style="shape-rendering:geometricPrecision; text-rendering:geometricPrecision; image-rendering:optimizeQuality; fill-rule:evenodd; clip-rule:evenodd"
viewBox="0 0 19.68 148.69"
 xmlns:xlink="http://www.w3.org/1999/xlink"
 xmlns:xodm="http://www.corel.com/coreldraw/odm/2003">
 <defs>
  <style type="text/css">
   <![CDATA[
    .str0 {stroke:#858474;stroke-width:0.88;stroke-miterlimit:22.9256}
    .str1 {stroke:#FFCC29;stroke-width:0.88;stroke-miterlimit:22.9256}
    .fil0 {fill:none}
   ]]>
  </style>
 </defs>
 <g id="Layer_x0020_1">
  <metadata id="CorelCorpID_0Corel-Layer"/>
  <g id="_1216029248">
   <g>
    <path class="fil0 str0" d="M8.51 148.17c0.85,-0.79 0.89,-13.07 0,-13.78 -0.9,-0.79 -7.45,5.28 -7.45,6.91 0,1.63 6.54,7.71 7.45,6.87z"/>
    <line class="fil0 str0" x1="9.06" y1="141.29" x2="19.68" y2= "141.29" />
   </g>
   <g>
    <path class="fil0 str1" d="M8.51 103.54c0.85,-0.79 0.89,-13.07 0,-13.78 -0.9,-0.79 -7.45,5.28 -7.45,6.91 0,1.63 6.54,7.71 7.45,6.87z"/>
    <line class="fil0 str1" x1="9.06" y1="96.66" x2="19.68" y2= "96.66" />
   </g>
   <g>
    <path class="fil0 str0" d="M11.17 58.92c-0.85,-0.79 -0.89,-13.07 0,-13.78 0.9,-0.79 7.45,5.28 7.45,6.91 0,1.63 -6.54,7.71 -7.45,6.87z"/>
    <line class="fil0 str0" x1="10.62" y1="52.03" x2="-0" y2= "52.03" />
   </g>
   <g>
    <path class="fil0 str1" d="M11.17 14.29c-0.85,-0.79 -0.89,-13.07 0,-13.78 0.9,-0.79 7.45,5.28 7.45,6.91 0,1.63 -6.54,7.71 -7.45,6.87z"/>
    <line class="fil0 str1" x1="10.62" y1="7.41" x2="-0" y2= "7.41" />
   </g>
  </g>
 </g>
</svg>
