<?xml version="1.0" encoding="UTF-8"?>
<!DOCTYPE svg PUBLIC "-//W3C//DTD SVG 1.1//EN" "http://www.w3.org/Graphics/SVG/1.1/DTD/svg11.dtd">
<!-- Creator: CorelDRAW 2020 -->
<svg xmlns="http://www.w3.org/2000/svg" xml:space="preserve" width="4.3906mm" height="28.6189mm" version="1.1" style="shape-rendering:geometricPrecision; text-rendering:geometricPrecision; image-rendering:optimizeQuality; fill-rule:evenodd; clip-rule:evenodd"
viewBox="0 0 10.63 69.3"
 xmlns:xlink="http://www.w3.org/1999/xlink"
 xmlns:xodm="http://www.corel.com/coreldraw/odm/2003">
 <defs>
  <style type="text/css">
   <![CDATA[
    .str0 {stroke:#ACA77B;stroke-width:2.42;stroke-miterlimit:22.9256;stroke-opacity:0.788235}
    .str1 {stroke:#C6B93A;stroke-width:2.42;stroke-miterlimit:22.9256;stroke-opacity:0.788235}
    .fil0 {fill:none}
   ]]>
  </style>
 </defs>
 <g id="Layer_x0020_1">
  <metadata id="CorelCorpID_0Corel-Layer"/>
  <g id="_1027351408">
   <path class="fil0 str0" d="M9.96 17.19c-3.78,-2.53 -6.56,-4.55 -7.82,-6.56 -1.51,-2.02 -1.51,-2.78 2.53,-6.06 1.51,-1.26 5.29,-3.53 5.29,-3.53"/>
   <path class="fil0 str1" d="M9.96 42.73c-3.78,-2.53 -6.56,-4.55 -7.82,-6.56 -1.51,-2.02 -1.51,-2.78 2.53,-6.06 1.51,-1.26 5.29,-3.53 5.29,-3.53"/>
   <path class="fil0 str0" d="M9.96 68.3c-3.78,-2.53 -6.56,-4.55 -7.82,-6.56 -1.51,-2.02 -1.51,-2.78 2.53,-6.06 1.51,-1.26 5.29,-3.53 5.29,-3.53"/>
  </g>
 </g>
</svg>
