<?xml version="1.0" encoding="UTF-8"?>
<!DOCTYPE svg PUBLIC "-//W3C//DTD SVG 1.1//EN" "http://www.w3.org/Graphics/SVG/1.1/DTD/svg11.dtd">
<!-- Creator: CorelDRAW 2020 -->
<svg xmlns="http://www.w3.org/2000/svg" xml:space="preserve" width="4.94mm" height="24.7mm" version="1.1" style="shape-rendering:geometricPrecision; text-rendering:geometricPrecision; image-rendering:optimizeQuality; fill-rule:evenodd; clip-rule:evenodd"
viewBox="0 0 18.54 92.71"
 xmlns:xlink="http://www.w3.org/1999/xlink"
 xmlns:xodm="http://www.corel.com/coreldraw/odm/2003">
 <defs>
  <style type="text/css">
   <![CDATA[
    .str1 {stroke:#ACA77B;stroke-width:3.75;stroke-miterlimit:22.9256;stroke-opacity:0.811765}
    .str0 {stroke:#C6B93A;stroke-width:3.75;stroke-miterlimit:22.9256;stroke-opacity:0.811765}
    .str2 {stroke:#ACA77B;stroke-width:3;stroke-miterlimit:22.9256}
    .str3 {stroke:#D1C65F;stroke-width:3;stroke-miterlimit:22.9256}
    .fil0 {fill:none}
    .fil1 {fill:none}
   ]]>
  </style>
 </defs>
 <g id="Layer_x0020_1">
  <metadata id="CorelCorpID_0Corel-Layer"/>
  <g id="_1197239368">
   <polygon class="fil0" points="-0,0 18.54,0 18.54,92.71 -0,92.71 "/>
   <path class="fil1 str0" d="M4.28 43.02c-1,-0.76 -0.76,-4.35 -0.76,-7.86 0,-3.51 -0.28,-6.98 0.76,-7.66 1,-0.72 3.31,1.32 5.62,3.07 2.31,1.76 4.63,3.23 4.63,4.71 0,1.48 -2.31,2.95 -4.63,4.71 -2.31,1.76 -4.63,3.79 -5.62,3.03z"/>
   <path class="fil1 str1" d="M4.28 19.36c-1,-0.76 -0.76,-4.35 -0.76,-7.86 0,-3.51 -0.28,-6.98 0.76,-7.66 1,-0.72 3.31,1.32 5.62,3.07 2.31,1.76 4.63,3.23 4.63,4.71 0,1.48 -2.31,2.95 -4.63,4.71 -2.31,1.76 -4.63,3.79 -5.62,3.03z"/>
   <path class="fil0 str2" d="M11.64 51.42l0 15.01m-6 -15.01l0 15.01"/>
   <path class="fil0 str3" d="M11.64 73.95l0 15.01m-6 -15.01l0 15.01"/>
  </g>
 </g>
</svg>
