<?xml version="1.0" encoding="UTF-8"?>
<!DOCTYPE svg PUBLIC "-//W3C//DTD SVG 1.1//EN" "http://www.w3.org/Graphics/SVG/1.1/DTD/svg11.dtd">
<!-- Creator: CorelDRAW 2020 -->
<svg xmlns="http://www.w3.org/2000/svg" xml:space="preserve" width="30.335mm" height="46.5608mm" version="1.1" style="shape-rendering:geometricPrecision; text-rendering:geometricPrecision; image-rendering:optimizeQuality; fill-rule:evenodd; clip-rule:evenodd"
viewBox="0 0 920.69 1413.15"
 xmlns:xlink="http://www.w3.org/1999/xlink"
 xmlns:xodm="http://www.corel.com/coreldraw/odm/2003">
 <defs>
  <style type="text/css">
   <![CDATA[
    .str1 {stroke:#FFCC29;stroke-width:85.48;stroke-miterlimit:22.9256;stroke-opacity:0.811765}
    .str0 {stroke:#C6B93A;stroke-width:85.48;stroke-miterlimit:22.9256;stroke-opacity:0.811765}
    .fil0 {fill:none}
    .fil1 {fill:none}
   ]]>
  </style>
 </defs>
 <g id="Layer_x0020_1">
  <metadata id="CorelCorpID_0Corel-Layer"/>
  <g id="_1207154776">
   <polygon class="fil0" points="-0,0 920.69,0 920.69,1413.15 -0,1413.15 "/>
   <path class="fil1 str0" d="M381.16 1189.62c-16.7,-12.69 -12.69,-72.79 -12.69,-131.55 0,-58.76 -4.67,-116.86 12.69,-128.22 16.7,-12.02 55.43,22.04 94.16,51.42 38.73,29.38 77.46,54.09 77.46,78.8 0,24.71 -38.73,49.42 -77.46,78.8 -38.73,29.38 -77.46,63.44 -94.16,50.75z"/>
   <path class="fil1 str1" d="M381.16 483.05c-16.7,-12.69 -12.69,-72.79 -12.69,-131.55 0,-58.76 -4.67,-116.86 12.69,-128.22 16.7,-12.02 55.43,22.04 94.16,51.42 38.73,29.38 77.46,54.09 77.46,78.8 0,24.71 -38.73,49.42 -77.46,78.8 -38.73,29.38 -77.46,63.44 -94.16,50.75z"/>
  </g>
 </g>
</svg>
