<?xml version="1.0" encoding="UTF-8"?>
<!DOCTYPE svg PUBLIC "-//W3C//DTD SVG 1.1//EN" "http://www.w3.org/Graphics/SVG/1.1/DTD/svg11.dtd">
<!-- Creator: CorelDRAW 2020 -->
<svg xmlns="http://www.w3.org/2000/svg" xml:space="preserve" width="2.3595mm" height="14.4222mm" version="1.1" style="shape-rendering:geometricPrecision; text-rendering:geometricPrecision; image-rendering:optimizeQuality; fill-rule:evenodd; clip-rule:evenodd"
viewBox="0 0 6.97 42.59"
 xmlns:xlink="http://www.w3.org/1999/xlink"
 xmlns:xodm="http://www.corel.com/coreldraw/odm/2003">
 <defs>
  <style type="text/css">
   <![CDATA[
    .str0 {stroke:#ACA77B;stroke-width:1.48;stroke-miterlimit:22.9256;stroke-opacity:0.788235}
    .str1 {stroke:#C6B93A;stroke-width:1.48;stroke-miterlimit:22.9256;stroke-opacity:0.788235}
    .fil0 {fill:none}
   ]]>
  </style>
 </defs>
 <g id="Layer_x0020_1">
  <metadata id="CorelCorpID_0Corel-Layer"/>
  <g id="_1510390848">
   <path class="fil0 str0" d="M0.41 11.38c2.52,-1.68 4.37,-3.02 5.2,-4.37 1,-1.34 1,-1.85 -1.68,-4.03 -1,-0.84 -3.52,-2.35 -3.52,-2.35"/>
   <path class="fil0 str1" d="M0.41 26.68c2.52,-1.68 4.37,-3.02 5.2,-4.37 1,-1.34 1,-1.85 -1.68,-4.03 -1,-0.84 -3.52,-2.35 -3.52,-2.35"/>
   <path class="fil0 str0" d="M0.41 41.98c2.52,-1.68 4.37,-3.02 5.2,-4.37 1,-1.34 1,-1.85 -1.68,-4.03 -1,-0.84 -3.52,-2.35 -3.52,-2.35"/>
  </g>
 </g>
</svg>
