<?xml version="1.0" encoding="UTF-8"?>
<!DOCTYPE svg PUBLIC "-//W3C//DTD SVG 1.1//EN" "http://www.w3.org/Graphics/SVG/1.1/DTD/svg11.dtd">
<!-- Creator: CorelDRAW 2020 -->
<svg xmlns="http://www.w3.org/2000/svg" xml:space="preserve" width="4.3905mm" height="28.6189mm" version="1.1" style="shape-rendering:geometricPrecision; text-rendering:geometricPrecision; image-rendering:optimizeQuality; fill-rule:evenodd; clip-rule:evenodd"
viewBox="0 0 10.66 69.47"
 xmlns:xlink="http://www.w3.org/1999/xlink"
 xmlns:xodm="http://www.corel.com/coreldraw/odm/2003">
 <defs>
  <style type="text/css">
   <![CDATA[
    .str0 {stroke:#ACA77B;stroke-width:2.43;stroke-miterlimit:22.9256;stroke-opacity:0.788235}
    .str1 {stroke:#C6B93A;stroke-width:2.43;stroke-miterlimit:22.9256;stroke-opacity:0.788235}
    .fil0 {fill:none}
   ]]>
  </style>
 </defs>
 <g id="Layer_x0020_1">
  <metadata id="CorelCorpID_0Corel-Layer"/>
  <g id="_1215462304">
   <path class="fil0 str0" d="M0.67 17.23c3.79,-2.53 6.58,-4.56 7.84,-6.58 1.51,-2.02 1.51,-2.79 -2.53,-6.07 -1.51,-1.26 -5.31,-3.54 -5.31,-3.54"/>
   <path class="fil0 str1" d="M0.67 42.84c3.79,-2.53 6.58,-4.56 7.84,-6.58 1.51,-2.02 1.51,-2.79 -2.53,-6.07 -1.51,-1.26 -5.31,-3.54 -5.31,-3.54"/>
   <path class="fil0 str0" d="M0.67 68.46c3.79,-2.53 6.58,-4.56 7.84,-6.58 1.51,-2.02 1.51,-2.79 -2.53,-6.07 -1.51,-1.26 -5.31,-3.54 -5.31,-3.54"/>
  </g>
 </g>
</svg>
