<?xml version="1.0" encoding="UTF-8"?>
<!DOCTYPE svg PUBLIC "-//W3C//DTD SVG 1.1//EN" "http://www.w3.org/Graphics/SVG/1.1/DTD/svg11.dtd">
<!-- Creator: CorelDRAW 2020 -->
<svg xmlns="http://www.w3.org/2000/svg" xml:space="preserve" width="2.3595mm" height="14.4222mm" version="1.1" style="shape-rendering:geometricPrecision; text-rendering:geometricPrecision; image-rendering:optimizeQuality; fill-rule:evenodd; clip-rule:evenodd"
viewBox="0 0 6.95 42.48"
 xmlns:xlink="http://www.w3.org/1999/xlink"
 xmlns:xodm="http://www.corel.com/coreldraw/odm/2003">
 <defs>
  <style type="text/css">
   <![CDATA[
    .str0 {stroke:#ACA77B;stroke-width:1.47;stroke-miterlimit:22.9256;stroke-opacity:0.788235}
    .str1 {stroke:#C6B93A;stroke-width:1.47;stroke-miterlimit:22.9256;stroke-opacity:0.788235}
    .fil0 {fill:none}
   ]]>
  </style>
 </defs>
 <g id="Layer_x0020_1">
  <metadata id="CorelCorpID_0Corel-Layer"/>
  <g id="_1510394808">
   <path class="fil0 str0" d="M6.54 11.34c-2.51,-1.68 -4.35,-3.02 -5.19,-4.35 -1,-1.34 -1,-1.84 1.68,-4.02 1,-0.83 3.51,-2.34 3.51,-2.34"/>
   <path class="fil0 str1" d="M6.54 26.6c-2.51,-1.68 -4.35,-3.02 -5.19,-4.35 -1,-1.34 -1,-1.84 1.68,-4.02 1,-0.83 3.51,-2.34 3.51,-2.34"/>
   <path class="fil0 str0" d="M6.54 41.86c-2.51,-1.68 -4.35,-3.02 -5.19,-4.35 -1,-1.34 -1,-1.84 1.68,-4.02 1,-0.83 3.51,-2.34 3.51,-2.34"/>
  </g>
 </g>
</svg>
